<?xml version="1.0" encoding="UTF-8" standalone="no"?>
<svg
   xmlns:dc="http://purl.org/dc/elements/1.1/"
   xmlns:cc="http://creativecommons.org/ns#"
   xmlns:rdf="http://www.w3.org/1999/02/22-rdf-syntax-ns#"
   xmlns:svg="http://www.w3.org/2000/svg"
   xmlns="http://www.w3.org/2000/svg"
   xmlns:sodipodi="http://sodipodi.sourceforge.net/DTD/sodipodi-0.dtd"
   xmlns:inkscape="http://www.inkscape.org/namespaces/inkscape"
   version="1.1"
   id="Layer_1"
   x="0"
   y="0"
   xml:space="preserve"
   width="1300"
   height="1000"
   sodipodi:docname="maboi-404-12.svg"
   inkscape:version="0.92.2 (5c3e80d, 2017-08-06)"><metadata
     id="metadata27"><rdf:RDF><cc:Work
         rdf:about=""><dc:format>image/svg+xml</dc:format><dc:type
           rdf:resource="http://purl.org/dc/dcmitype/StillImage" /><dc:title /></cc:Work></rdf:RDF></metadata><defs
     id="defs25" /><sodipodi:namedview
     pagecolor="#ffffff"
     bordercolor="#666666"
     borderopacity="1"
     objecttolerance="10"
     gridtolerance="10"
     guidetolerance="10"
     inkscape:pageopacity="0"
     inkscape:pageshadow="2"
     inkscape:window-width="1600"
     inkscape:window-height="838"
     id="namedview23"
     showgrid="false"
     inkscape:snap-text-baseline="true"
     inkscape:zoom="0.3157697"
     inkscape:cx="376.82864"
     inkscape:cy="674.31353"
     inkscape:window-x="-8"
     inkscape:window-y="-8"
     inkscape:window-maximized="1"
     inkscape:current-layer="Layer_1"><inkscape:grid
       type="xygrid"
       id="grid909" /></sodipodi:namedview><style
     type="text/css"
     id="style2" /><path
     id="path1061"
     d="m 405.81381,844.86077 c -2.56,0.32 0,1.28 -4.48,-22.4 -11.84,-62.39997 -10.24,-112.31997 7.04,-147.51997 12.16,-24.959 30.08,-46.399 56.96,-52.159 l 16.32,-6.4 -4.48,9.92 c -4.16,9.28 -6.08,19.2 -3.84,20.16 0.96,0.64 1.92,-1.28 7.68,-4.8 17.6,-10.24 32.32,-17.28 53.44,-24.32 25.919,-8 37.119,-12.48 60.799,-9.6 l 21.12,2.24 -9.28,7.67999 c -9.28,7.36001 -17.28,12.8 -16.64,15.04 0.32,0.32001 3.52,0 9.92,0.96 21.44,3.20001 42.56,12.16 59.52,24 9.919,6.72001 34.559,26.56 28.799,24 6.08,2.56 -10.24,0.32001 -15.36,0.64 -16.64,0.96001 -20.48,1.92 -40,5.76 l -17.6,8.96001 -11.84,8.32 c -26.88,18.56 -49.92,31.36 -80.639,41.92 -22.72,8 -36.8,11.2 -59.84,14.39997 -12.8,1.6 -10.24,-1.27997 -9.28,2.24 0.32,0.64 -0.64,7.36 -0.64,13.44 0.64,29.119 -8.96,48.639 -26.24,59.519 -5.76,3.84 -17.599,8 -21.119,8.64 z"
     inkscape:connector-curvature="0"
     style="fill:#312929;fill-opacity:1;fill-rule:nonzero;stroke:none;stroke-width:4" /><path
     id="path1063"
     d="m 612.21281,969.65975 c -30.72,-0.32 -72.32,-14.72 -119.36,-41.59998 -10.24,-5.76 -20.8,-10.56 -22.08,-11.2 -1.92,-0.96 -0.64,-0.96 -5.76,3.2 -8.96,6.72 -25.6,11.2 -36.16,9.6 -28.479,-4.16 -56.959,-42.56 -47.679,-64 3.52,-8.32 10.24,-13.44 28.16,-20.16 13.76,-5.12 17.92,-7.36 23.36,-11.52 14.08,-11.2 20.48,-24.32 21.44,-47.359 0.32,-6.4 -0.64,-9.92 -0.32,-12.8 0.32,-2.56 0,-4.48 0.32,-6.4 0,-3.52 2.24,-4.48 11.2,-5.76 15.68,-1.91997 42.88,-8.31997 57.6,-12.79997 26.559,-8.64 58.559,-26.56 81.599,-43.52 4.48,-3.2 11.2,-6.4 11.2,-6.4 1.6,0.96 12.48,27.2 15.36,38.4 2.56,10.88 3.2,14.4 0,17.92 -7.36,8.63997 -15.68,24.63997 -17.28,36.47997 -1.6,11.52 -2.88,11.84 2.24,26.24 4.8,14.4 8,14.72 16,22.72 4.48,4.8 11.84,9.92 17.6,13.12 l 11.519,5.76 -2.24,9.92 c -7.04,35.2 -26.56,97.59898 -32.32,99.51898 -1.6,0.32 -10.24,0.64 -14.4,0.64 z m -1.28,-39.99998 c 11.2,-8.64 18.24,-17.92 16.96,-21.44 -0.96,-3.52 0.96,-1.92 -2.24,3.52 -4.16,7.36 -7.36,10.24 -17.92,17.92 -8.32,5.76 -9.28,4.8 -6.72,6.08 2.24,0.96 2.88,-0.64 9.92,-6.08 z m -24.64,-34.56 c 11.84,-9.6 20.48,-25.6 22.4,-40.64 1.92,-13.12 0.96,-22.08 -4.16,-35.2 -4.16,-10.88 -6.08,-12.8 -13.44,-20.159 -13.76,-13.76 -31.36,-20.48 -49.6,-17.6 -14.72,2.24 -31.36,9.6 -39.36,16.96 -12.16,11.52 -18.24,29.12 -18.56,49.6 0,8 0.64,10.56 4.8,21.12 6.72,16.32 12.48,23.04 26.24,30.4 12.8,7.04 24.64,8.64 42.24,7.04 14.08,-0.96 19.2,-3.2 29.44,-11.52 z m -148.48,4.48 c 1.92,-1.6 1.92,-1.6 1.6,-2.24 -1.28,-1.6 -2.24,0.32 -9.6,4.48 -3.84,2.56 -7.04,2.88 -10.88,0.96 -3.84,-1.92 -5.759,-4.48 -7.999,-10.56 -1.28,-4.16 -1.28,-10.24 -0.64,-10.56 1.6,-1.92 14.08,-3.52 24.32,-2.24 5.44,0.96 7.36,2.24 7.68,1.6 1.28,-2.88 -1.28,-2.56 -11.2,-3.84 -11.2,-0.96 -22.4,0.96 -23.36,4.48 -0.32,0.96 0,3.84 1.28,8.32 1.28,6.4 2.88,8.32 6.72,11.84 2.56,2.56 5.44,3.2 6.72,3.2 3.52,0 10.56,-1.92 14.4,-5.12 z"
     inkscape:connector-curvature="0"
     style="fill:#efcebd;fill-opacity:1;fill-rule:nonzero;stroke:none;stroke-width:4" /><path
     id="path1065"
     d="m 681.65181,854.46077 c -3.52,0.96 -17.92,2.88 -19.2,2.88 -1.92,-0.32 -11.52,-4.16 -16.96,-7.68 -10.56,-6.72 -18.88,-14.4 -24,-23.68 -3.2,-6.08 -6.4,-16.64 -6.72,-23.04 -0.64,-15.36 1.28,-34.56 16,-46.07997 l 5.12,-4.16 6.4,-2.88 c 6.4,-2.88 24,-5.44 26.56,-5.76 0.96,0 -2.88,2.88 -5.44,4.8 -21.12,13.75997 -30.72,38.71997 -23.36,63.67997 2.24,7.36 4.48,11.84 8.32,17.6 8.64,12.16 24.32,17.92 38.4,19.84 3.84,0.64 -0.32,3.52 -5.12,4.48 z"
     inkscape:connector-curvature="0"
     style="fill:#00adef;fill-opacity:1;fill-rule:nonzero;stroke:none;stroke-width:4" /><path
     id="path1067"
     d="m 531.89281,905.34077 c -20.16,-4.48 -35.84,-17.6 -43.84,-38.08 -3.84,-10.24 -3.52,-11.2 -3.2,-19.52 1.28,-31.36 12.16,-52.8 32.96,-58.24 l 17.28,-4.48 6.72,-1.6 c -7.68,1.6 -30.4,28.8 -34.24,40.96 -5.12,16 -5.12,27.2 1.28,43.52 6.08,15.36 16,23.68 28.48,30.72 3.52,1.92 13.44,5.76 10.24,6.72 -3.84,0.96 -12.16,0.64 -15.68,0 z"
     inkscape:connector-curvature="0"
     style="fill:#00adef;fill-opacity:1;fill-rule:nonzero;stroke:none;stroke-width:4" /><path
     id="path1069"
     d="m 710.13181,837.18077 c 4.8,-5.12 11.52,-19.2 12.8,-26.88 3.2,-21.12 -5.12,-44.16 -18.24,-57.27997 -16.64,-6.4 -14.4,-9.28 -1.6,-7.04 16.96,8.96 36.48,32.95997 32.64,57.27997 -1.92,11.84 -12.8,33.28 -21.76,38.4 l -11.52,4.8 z"
     inkscape:connector-curvature="0"
     style="fill:#4c7287;fill-opacity:1;fill-rule:nonzero;stroke:none;stroke-width:4" /><path
     id="path1071"
     d="m 556.85281,904.38077 c -38.4,-3.84 -64,-49.28 -47.36,-86.08 4.8,-10.56 13.12,-20.48 23.36,-27.2 11.84,-8 20.48,-9.28 31.36,-6.4 11.52,2.88 21.12,8.96 29.76,17.92 5.12,5.44 6.72,8.32 10.56,19.52 5.12,15.04 5.76,25.6 1.92,40.64 -3.2,12.48 -11.84,26.24 -22.4,33.6 -9.92,7.36 -17.28,9.28 -27.2,8 z"
     inkscape:connector-curvature="0"
     style="fill:#8ccef7;fill-opacity:1;fill-rule:nonzero;stroke:none;stroke-width:4" /><path
     id="path1073"
     d="m 681.65181,849.02077 c -9.28,-0.96 -21.44,-8.64 -28.48,-15.68 -4.16,-4.48 -7.36,-8 -11.2,-19.2 -4.16,-12.16 -3.52,-15.36 -2.24,-24.96 2.24,-17.92 15.04,-35.19998 30.72,-42.55997 7.04,-2.88 9.92,-2.88 16.64,-0.64 17.6,5.76 30.08,17.59997 34.88,35.83997 6.72,24.64 -4.16,54.72 -23.68,65.6 -3.2,1.92 -11.2,2.24 -16.64,1.6 z"
     inkscape:connector-curvature="0"
     style="fill:#8ccef7;fill-opacity:1;fill-rule:nonzero;stroke:none;stroke-width:4" /><path
     id="path1075"
     d="m 471.41281,648.3818 v 11.52 l 4.48,4.79999 c 15.04,-20.48 34.24,-30.08 54.72,-44.48 l -25.6,9.28 z"
     stroke-miterlimit="4"
     inkscape:connector-curvature="0"
     style="fill:#181818;fill-opacity:1;fill-rule:nonzero;stroke:#181818;stroke-width:4.15999985;stroke-linecap:butt;stroke-linejoin:round;stroke-miterlimit:4;stroke-dasharray:none;stroke-opacity:1" /><path
     id="path1077"
     d="m 559.73281,820.54077 c -1.6,2.24 -1.92,4.48 -0.64,6.4 1.6,2.88 3.2,3.84 5.12,4.8 1.92,0.64 3.84,0.96 5.76,-0.32 1.92,-1.6 3.52,-3.2 3.2,-6.4 -0.96,-2.88 -2.88,-4.48 -5.12,-5.76 -2.56,-1.28 -5.44,-0.96 -8.32,1.28 z"
     stroke-miterlimit="4"
     inkscape:connector-curvature="0"
     style="fill:#ffffff;fill-opacity:1;fill-rule:nonzero;stroke:#ffffff;stroke-width:0.31999999;stroke-linecap:butt;stroke-linejoin:miter;stroke-miterlimit:4;stroke-dasharray:none;stroke-opacity:1" /><path
     id="path1079"
     d="m 538.29281,805.18077 c -2.56,3.52 -3.52,6.72 -1.6,9.92 1.92,3.84 4.16,4.8 6.72,6.08 2.88,0.96 5.76,0.96 8.96,-1.28 3.2,-2.24 5.44,-5.12 5.44,-9.6 -0.96,-4.16 -3.52,-6.72 -7.04,-8 -3.84,-1.92 -8,-0.96 -12.48,2.88 z"
     stroke-miterlimit="4"
     inkscape:connector-curvature="0"
     style="fill:#ffffff;fill-opacity:1;fill-rule:nonzero;stroke:#ffffff;stroke-width:0.31999999;stroke-linecap:butt;stroke-linejoin:miter;stroke-miterlimit:4;stroke-dasharray:none;stroke-opacity:1" /><path
     id="path1081"
     d="m 689.01181,773.18077 c -3.2,1.6 -5.12,3.2 -6.08,5.76 -0.64,2.24 -0.32,4.48 0.32,6.72 1.6,1.92 3.84,2.56 5.76,3.2 2.56,-0.32 4.16,-1.28 6.08,-2.56 1.6,-2.56 2.24,-3.52 1.92,-6.4 -0.64,-2.24 -1.92,-4.16 -4.48,-5.76 -0.64,-0.96 -1.92,-1.28 -3.52,-0.96 z"
     stroke-miterlimit="4"
     inkscape:connector-curvature="0"
     style="fill:#ffffff;fill-opacity:1;fill-rule:nonzero;stroke:#ffffff;stroke-width:0.63999999;stroke-linecap:butt;stroke-linejoin:round;stroke-miterlimit:4;stroke-dasharray:none;stroke-opacity:1" /><path
     id="path1083"
     d="m 665.33181,758.4608 c -2.24,1.28 -4.48,2.88 -6.08,6.07997 -1.6,4.8 -0.64,6.72 0,8.96 1.28,3.52 3.52,5.44 6.72,7.04 2.24,0.96 5.44,0.96 8.64,-0.32 3.2,-1.6 5.76,-3.84 7.04,-6.72 0.96,-3.52 0.64,-6.72 -0.64,-8.96 -0.96,-3.83998 -3.52,-5.43998 -6.08,-6.71998 -3.52,-0.63999 -6.72,-0.63999 -9.6,0.64001 z"
     stroke-miterlimit="4"
     inkscape:connector-curvature="0"
     style="fill:#ffffff;fill-opacity:1;fill-rule:nonzero;stroke:#ffffff;stroke-width:0.63999999;stroke-linecap:butt;stroke-linejoin:round;stroke-miterlimit:4;stroke-dasharray:none;stroke-opacity:1" /><path
     id="path1085"
     d="m 582.45281,650.6218 c 44.16,-5.44001 72.96,19.2 106.879,32.32 -18.56,-18.88 -52.8,-50.56 -100.16,-48 -4.8,4.48 -6.4,9.92 -6.72,15.68 z"
     stroke-miterlimit="4"
     inkscape:connector-curvature="0"
     style="fill:#181818;fill-opacity:1;fill-rule:nonzero;stroke:#181818;stroke-width:3.83999991;stroke-linecap:butt;stroke-linejoin:miter;stroke-miterlimit:4;stroke-dasharray:none;stroke-opacity:1" /><path
     id="path1087"
     d="m 423.41281,837.18077 c -14.719,-57.6 -31.039,-113.59998 -3.84,-179.51898 -19.199,39.04 -41.279,72.96001 -15.039,187.19898 7.04,-1.6 14.4,-2.56 18.88,-7.68 z"
     stroke-miterlimit="4"
     inkscape:connector-curvature="0"
     style="fill:#171717;fill-opacity:1;fill-rule:nonzero;stroke:#181818;stroke-width:3.83999991;stroke-linecap:butt;stroke-linejoin:miter;stroke-miterlimit:4;stroke-dasharray:none;stroke-opacity:1" /><path
     id="path1089"
     d="m 453.17281,762.62077 c 53.76,1.92 109.12,-8.95997 168.64,-52.79997 l -5.44,-12.8 c -44.8,40.64 -103.04,61.12 -163.2,65.59997 z"
     stroke-miterlimit="4"
     inkscape:connector-curvature="0"
     style="fill:#9a8179;fill-opacity:1;fill-rule:nonzero;stroke:#9a8179;stroke-width:3.83999991;stroke-linecap:butt;stroke-linejoin:miter;stroke-miterlimit:4;stroke-dasharray:none;stroke-opacity:1" /><path
     id="path1091"
     d="m 423.09281,840.70077 c -39.359,10.88 -45.119,23.36 -43.839,40.32 9.28,29.12 26.24,40.96 46.4,48.639 16.96,0.32 33.28,-0.32 44.8,-13.12 48,27.84 98.879,59.19998 156.798,52.79998 -80.959,-21.12 -157.758,-45.75998 -204.158,-128.63998 z"
     stroke-miterlimit="4"
     inkscape:connector-curvature="0"
     style="fill:#9a8179;fill-opacity:1;fill-rule:nonzero;stroke:#9a8179;stroke-width:3.83999991;stroke-linecap:butt;stroke-linejoin:miter;stroke-miterlimit:4;stroke-dasharray:none;stroke-opacity:1" /><path
     id="path1093"
     d="m 590.45281,633.3418 c -6.72,7.36 -8,11.84 -8,15.68 m -97.92,-33.92 c -7.68,8.32 -10.56,19.2 -11.52,31.36 m -19.84,116.15997 c 61.12,-5.11997 115.2,-28.79997 163.52,-66.23997 m -210.56,149.43897 c -28.48,-120.63997 -11.52,-205.11898 78.4,-230.71897 m -78.4,230.71897 c 49.6,-14.08 49.28,-48.32 47.04,-83.2 m 20.16,-115.83897 c 52.16,-32.32 100.799,-42.56 147.198,-37.76 m 0,0 c -10.88,4.8 -20.8,12.8 -30.08,24.32 m 0,0 c 48.32,3.2 74.24,26.24 100.16,48.64 m 0,0 c -23.36,-0.64 -47.68,1.92 -73.92,14.4 m -201.277,146.87897 c -53.12,9.92 -35.84,47.68 -27.52,59.2 m 0,0 c 24.64,32.319 48,32.639 70.72,22.719 m 0,0 c 4.8,-2.56 8.64,-5.44 11.84,-8.64 m -27.52,-36.48 c -13.76,-2.88 -25.28,-3.2 -34.56,0.64 0,6.72 2.24,14.4 4.16,16.96 5.44,7.36 8.32,7.68 14.72,6.72 5.76,-1.92 8.64,-4.48 11.84,-7.36 m 223.678,-37.76 c -43.52,-16 -68.8,-59.519 -28.48,-108.15897 m 27.2,107.51997 c 71.68,-8.32 76.8,-42.24 72.64,-70.4 -8.64,-34.23997 -27.2,-59.83997 -99.84,-37.11997 m 42.56,-8 c 55.68,5.12 62.72,85.75997 16.32,106.55997 -56.96,5.12 -80.32,-83.2 -16.32,-106.55997 z m -42.24,7.68 c -3.2,-17.92 -8.96,-35.84 -18.24,-53.76 m -65.92,84.79997 c 69.12,4.48 79.36,95.68 19.2,122.88 -68.159,7.04 -95.679,-94.08 -19.2,-122.88 z m 18.56,122.88 c -46.079,7.68 -73.919,-8.64 -84.479,-48.32 -1.28,-39.68 13.76,-71.36 65.92,-74.56 m 49.92,153.599 c 12.48,-7.36 22.72,-16 28.16,-27.84 m -157.76,8.96 c 72,44.15998 121.6,58.87998 155.52,53.43998 m 35.839,-111.03998 c -6.72,37.12 -18.56,72.96 -34.88,110.39998"
     stroke-miterlimit="4"
     inkscape:connector-curvature="0"
     style="fill:none;stroke:#000000;stroke-width:3.83999991;stroke-linecap:round;stroke-linejoin:miter;stroke-miterlimit:4;stroke-dasharray:none;stroke-opacity:1" /><flowRoot
     xml:space="preserve"
     id="flowRoot837"
     style="font-style:normal;font-variant:normal;font-weight:normal;font-stretch:normal;font-size:40px;line-height:1.25;font-family:'Courier New';-inkscape-font-specification:'Courier New';letter-spacing:0px;word-spacing:0px;fill:#000000;fill-opacity:1;stroke:none"
     transform="translate(238.95087,495.73103)"><flowRegion
       id="flowRegion839"><rect
         id="rect841"
         width="0"
         height="504.22534"
         x="-39.436619"
         y="4.2253523" /></flowRegion><flowPara
       id="flowPara843" /></flowRoot><g
     aria-label="404"
     style="font-style:normal;font-variant:normal;font-weight:normal;font-stretch:normal;font-size:666.66668701px;line-height:1.25;font-family:sans-serif;-inkscape-font-specification:'sans-serif, Normal';font-variant-ligatures:normal;font-variant-caps:normal;font-variant-numeric:normal;font-feature-settings:normal;text-align:start;letter-spacing:0px;word-spacing:0px;writing-mode:lr-tb;text-anchor:start;fill:#00c1c1;fill-opacity:1;stroke:#09616c;stroke-width:15;stroke-linejoin:round;stroke-miterlimit:4;stroke-dasharray:none;stroke-opacity:1"
     id="text877"><path
       d="m 408.78905,392.58644 h -71.94011 v 136.39324 h -62.5 V 392.58644 H 42.252578 V 317.71665 L 276.95311,44.27914 h 59.89583 v 296.22397 h 71.94011 z M 274.34894,340.50311 V 121.7531 L 86.523413,340.50311 Z"
       style=""
       id="path838" /><path
       d="m 821.54948,286.46665 q 0,130.53386 -41.01562,191.73177 -40.69011,60.8724 -126.62761,60.8724 -87.23959,0 -127.60417,-61.84896 -40.03906,-61.84896 -40.03906,-190.10417 0,-129.23178 40.6901,-190.755215 40.69011,-61.848961 126.95313,-61.848961 87.23959,0 127.27865,62.825523 40.36458,62.500003 40.36458,189.127613 z M 735.9375,434.25311 q 11.39323,-26.36719 15.29948,-61.84896 4.23177,-35.80729 4.23177,-85.9375 0,-49.47917 -4.23177,-85.93751 -3.90625,-36.45833 -15.625,-61.84896 -11.39323,-25.0651 -31.25,-37.76041 -19.53125,-12.695316 -50.45573,-12.695316 -30.59896,0 -50.78125,12.695316 -19.85677,12.69531 -31.57552,38.41146 -11.06771,24.08854 -15.29948,62.82552 -3.90625,38.73698 -3.90625,84.96094 0,50.78125 3.58073,84.96094 3.58073,34.17969 15.29948,61.19792 10.74218,25.39062 30.27343,38.73698 19.85678,13.34635 52.40886,13.34635 30.59896,0 50.78125,-12.69531 20.18229,-12.69531 31.25,-38.41146 z"
       style=""
       id="path840" /><path
       d="m 1257.7474,392.58644 h -71.9401 v 136.39324 h -62.5 V 392.58644 H 891.21095 V 317.71665 L 1125.9115,44.27914 h 59.8958 v 296.22397 h 71.9401 z M 1123.3073,340.50311 V 121.7531 L 935.48179,340.50311 Z"
       style=""
       id="path842" /></g><text
     xml:space="preserve"
     style="font-style:normal;font-variant:normal;font-weight:normal;font-stretch:normal;font-size:400px;line-height:1.25;font-family:sans-serif;-inkscape-font-specification:'sans-serif, Normal';font-variant-ligatures:normal;font-variant-caps:normal;font-variant-numeric:normal;font-feature-settings:normal;text-align:start;letter-spacing:0px;word-spacing:0px;writing-mode:lr-tb;text-anchor:start;fill:#00c1c1;fill-opacity:1;stroke:#09616c;stroke-width:10.80000019;stroke-linejoin:round;stroke-miterlimit:4;stroke-dasharray:none;stroke-opacity:0.96470588"
     x="721.78827"
     y="889.3233"
     id="text885"><tspan
       sodipodi:role="line"
       id="tspan883"
       x="721.78827"
       y="889.3233">?</tspan></text>
</svg>