<svg xmlns="http://www.w3.org/2000/svg" version="1.1" id="Layer_1" x="0" y="0" xml:space="preserve" width="800" height="500"><style type="text/css" id="style2"/><path id="path1061" d="M253.121 297.36c-2.56.32 0 1.28-4.48-22.4-11.84-62.4-10.24-112.32 7.04-147.52 12.16-24.959 30.08-46.399 56.96-52.159l16.32-6.4-4.48 9.92c-4.16 9.28-6.08 19.2-3.84 20.16.96.64 1.92-1.28 7.68-4.8 17.6-10.24 32.32-17.28 53.44-24.32 25.919-8 37.119-12.48 60.799-9.6l21.12 2.24-9.28 7.68c-9.28 7.36-17.28 12.8-16.64 15.04.32.32 3.52 0 9.92.96 21.44 3.2 42.56 12.16 59.52 24 9.919 6.72 34.559 26.56 28.799 24 6.08 2.56-10.24.32-15.36.64-16.64.96-20.48 1.92-40 5.76l-17.6 8.96-11.84 8.32c-26.88 18.56-49.92 31.36-80.639 41.92-22.72 8-36.8 11.2-59.84 14.4-12.8 1.6-10.24-1.28-9.28 2.24.32.64-.64 7.36-.64 13.44.64 29.119-8.96 48.639-26.24 59.519-5.76 3.84-17.599 8-21.119 8.64z" fill="#312929" fill-opacity="1" fill-rule="nonzero" stroke="none" stroke-width="4"/><path id="path1063" d="M459.52 422.159c-30.72-.32-72.32-14.72-119.36-41.6-10.24-5.76-20.8-10.56-22.08-11.2-1.92-.96-.64-.96-5.76 3.2-8.96 6.72-25.6 11.2-36.16 9.6-28.479-4.16-56.959-42.56-47.679-64 3.52-8.32 10.24-13.44 28.16-20.16 13.76-5.12 17.92-7.36 23.36-11.52 14.08-11.2 20.48-24.32 21.44-47.359.32-6.4-.64-9.92-.32-12.8.32-2.56 0-4.48.32-6.4 0-3.52 2.24-4.48 11.2-5.76 15.68-1.92 42.88-8.32 57.6-12.8 26.559-8.64 58.559-26.56 81.599-43.52 4.48-3.2 11.2-6.4 11.2-6.4 1.6.96 12.48 27.2 15.36 38.4 2.56 10.88 3.2 14.4 0 17.92-7.36 8.64-15.68 24.64-17.28 36.48-1.6 11.52-2.88 11.84 2.24 26.24 4.8 14.4 8 14.72 16 22.72 4.48 4.8 11.84 9.92 17.6 13.12l11.519 5.76-2.24 9.92c-7.04 35.2-26.56 97.599-32.32 99.519-1.6.32-10.24.64-14.4.64zm-1.28-40c11.2-8.64 18.24-17.92 16.96-21.44-.96-3.52.96-1.92-2.24 3.52-4.16 7.36-7.36 10.24-17.92 17.92-8.32 5.76-9.28 4.8-6.72 6.08 2.24.96 2.88-.64 9.92-6.08zm-24.64-34.56c11.84-9.6 20.48-25.6 22.4-40.64 1.92-13.12.96-22.08-4.16-35.2-4.16-10.88-6.08-12.8-13.44-20.159-13.76-13.76-31.36-20.48-49.6-17.6-14.72 2.24-31.36 9.6-39.36 16.96-12.16 11.52-18.24 29.12-18.56 49.6 0 8 .64 10.56 4.8 21.12 6.72 16.32 12.48 23.04 26.24 30.4 12.8 7.04 24.64 8.64 42.24 7.04 14.08-.96 19.2-3.2 29.44-11.52zm-148.48 4.48c1.92-1.6 1.92-1.6 1.6-2.24-1.28-1.6-2.24.32-9.6 4.48-3.84 2.56-7.04 2.88-10.88.96-3.84-1.92-5.759-4.48-7.999-10.56-1.28-4.16-1.28-10.24-.64-10.56 1.6-1.92 14.08-3.52 24.32-2.24 5.44.96 7.36 2.24 7.68 1.6 1.28-2.88-1.28-2.56-11.2-3.84-11.2-.96-22.4.96-23.36 4.48-.32.96 0 3.84 1.28 8.32 1.28 6.4 2.88 8.32 6.72 11.84 2.56 2.56 5.44 3.2 6.72 3.2 3.52 0 10.56-1.92 14.4-5.12z" fill="#efcebd" fill-opacity="1" fill-rule="nonzero" stroke="none" stroke-width="4"/><path id="path1065" d="M528.959 306.96c-3.52.96-17.92 2.88-19.2 2.88-1.92-.32-11.52-4.16-16.96-7.68-10.56-6.72-18.88-14.4-24-23.68-3.2-6.08-6.4-16.64-6.72-23.04-.64-15.36 1.28-34.56 16-46.08l5.12-4.16 6.4-2.88c6.4-2.88 24-5.44 26.56-5.76.96 0-2.88 2.88-5.44 4.8-21.12 13.76-30.72 38.72-23.36 63.68 2.24 7.36 4.48 11.84 8.32 17.6 8.64 12.16 24.32 17.92 38.4 19.84 3.84.64-.32 3.52-5.12 4.48z" fill="#00adef" fill-opacity="1" fill-rule="nonzero" stroke="none" stroke-width="4"/><path id="path1067" d="M379.2 357.84c-20.16-4.48-35.84-17.6-43.84-38.08-3.84-10.24-3.52-11.2-3.2-19.52 1.28-31.36 12.16-52.8 32.96-58.24l17.28-4.48 6.72-1.6c-7.68 1.6-30.4 28.8-34.24 40.96-5.12 16-5.12 27.2 1.28 43.52 6.08 15.36 16 23.68 28.48 30.72 3.52 1.92 13.44 5.76 10.24 6.72-3.84.96-12.16.64-15.68 0z" fill="#00adef" fill-opacity="1" fill-rule="nonzero" stroke="none" stroke-width="4"/><path id="path1069" d="M557.439 289.68c4.8-5.12 11.52-19.2 12.8-26.88 3.2-21.12-5.12-44.16-18.24-57.28-16.64-6.4-14.4-9.28-1.6-7.04 16.96 8.96 36.48 32.96 32.64 57.28-1.92 11.84-12.8 33.28-21.76 38.4l-11.52 4.8z" fill="#4c7287" fill-opacity="1" fill-rule="nonzero" stroke="none" stroke-width="4"/><path id="path1071" d="M404.16 356.88c-38.4-3.84-64-49.28-47.36-86.08 4.8-10.56 13.12-20.48 23.36-27.2 11.84-8 20.48-9.28 31.36-6.4 11.52 2.88 21.12 8.96 29.76 17.92 5.12 5.44 6.72 8.32 10.56 19.52 5.12 15.04 5.76 25.6 1.92 40.64-3.2 12.48-11.84 26.24-22.4 33.6-9.92 7.36-17.28 9.28-27.2 8z" fill="#8ccef7" fill-opacity="1" fill-rule="nonzero" stroke="none" stroke-width="4"/><path id="path1073" d="M528.959 301.52c-9.28-.96-21.44-8.64-28.48-15.68-4.16-4.48-7.36-8-11.2-19.2-4.16-12.16-3.52-15.36-2.24-24.96 2.24-17.92 15.04-35.2 30.72-42.56 7.04-2.88 9.92-2.88 16.64-.64 17.6 5.76 30.08 17.6 34.88 35.84 6.72 24.64-4.16 54.72-23.68 65.6-3.2 1.92-11.2 2.24-16.64 1.6z" fill="#8ccef7" fill-opacity="1" fill-rule="nonzero" stroke="none" stroke-width="4"/><path id="path1075" d="M318.72 100.881v11.52l4.48 4.8c15.04-20.48 34.24-30.08 54.72-44.48l-25.6 9.28z" fill="#181818" fill-opacity="1" fill-rule="nonzero" stroke="#181818" stroke-width="4.16" stroke-linecap="butt" stroke-linejoin="round" stroke-miterlimit="4" stroke-dasharray="none" stroke-opacity="1"/><path id="path1077" d="M407.04 273.04c-1.6 2.24-1.92 4.48-.64 6.4 1.6 2.88 3.2 3.84 5.12 4.8 1.92.64 3.84.96 5.76-.32 1.92-1.6 3.52-3.2 3.2-6.4-.96-2.88-2.88-4.48-5.12-5.76-2.56-1.28-5.44-.96-8.32 1.28z" fill="#fff" fill-opacity="1" fill-rule="nonzero" stroke="#fff" stroke-width=".32" stroke-linecap="butt" stroke-linejoin="miter" stroke-miterlimit="4" stroke-dasharray="none" stroke-opacity="1"/><path id="path1079" d="M385.6 257.68c-2.56 3.52-3.52 6.72-1.6 9.92 1.92 3.84 4.16 4.8 6.72 6.08 2.88.96 5.76.96 8.96-1.28 3.2-2.24 5.44-5.12 5.44-9.6-.96-4.16-3.52-6.72-7.04-8-3.84-1.92-8-.96-12.48 2.88z" fill="#fff" fill-opacity="1" fill-rule="nonzero" stroke="#fff" stroke-width=".32" stroke-linecap="butt" stroke-linejoin="miter" stroke-miterlimit="4" stroke-dasharray="none" stroke-opacity="1"/><path id="path1081" d="M536.319 225.68c-3.2 1.6-5.12 3.2-6.08 5.76-.64 2.24-.32 4.48.32 6.72 1.6 1.92 3.84 2.56 5.76 3.2 2.56-.32 4.16-1.28 6.08-2.56 1.6-2.56 2.24-3.52 1.92-6.4-.64-2.24-1.92-4.16-4.48-5.76-.64-.96-1.92-1.28-3.52-.96z" fill="#fff" fill-opacity="1" fill-rule="nonzero" stroke="#fff" stroke-width=".64" stroke-linecap="butt" stroke-linejoin="round" stroke-miterlimit="4" stroke-dasharray="none" stroke-opacity="1"/><path id="path1083" d="M512.639 210.96c-2.24 1.28-4.48 2.88-6.08 6.08-1.6 4.8-.64 6.72 0 8.96 1.28 3.52 3.52 5.44 6.72 7.04 2.24.96 5.44.96 8.64-.32 3.2-1.6 5.76-3.84 7.04-6.72.96-3.52.64-6.72-.64-8.96-.96-3.84-3.52-5.44-6.08-6.72-3.52-.64-6.72-.64-9.6.64z" fill="#fff" fill-opacity="1" fill-rule="nonzero" stroke="#fff" stroke-width=".64" stroke-linecap="butt" stroke-linejoin="round" stroke-miterlimit="4" stroke-dasharray="none" stroke-opacity="1"/><path id="path1085" d="M429.76 103.121c44.16-5.44 72.96 19.2 106.879 32.32-18.56-18.88-52.8-50.56-100.16-48-4.8 4.48-6.4 9.92-6.72 15.68z" fill="#181818" fill-opacity="1" fill-rule="nonzero" stroke="#181818" stroke-width="3.84" stroke-linecap="butt" stroke-linejoin="miter" stroke-miterlimit="4" stroke-dasharray="none" stroke-opacity="1"/><path id="path1087" d="M270.72 289.68c-14.719-57.6-31.039-113.6-3.84-179.519-19.199 39.04-41.279 72.96-15.039 187.199 7.04-1.6 14.4-2.56 18.88-7.68z" fill="#171717" fill-opacity="1" fill-rule="nonzero" stroke="#181818" stroke-width="3.84" stroke-linecap="butt" stroke-linejoin="miter" stroke-miterlimit="4" stroke-dasharray="none" stroke-opacity="1"/><path id="path1089" d="M300.48 215.12c53.76 1.92 109.12-8.96 168.64-52.8l-5.44-12.8c-44.8 40.64-103.04 61.12-163.2 65.6z" fill="#9a8179" fill-opacity="1" fill-rule="nonzero" stroke="#9a8179" stroke-width="3.84" stroke-linecap="butt" stroke-linejoin="miter" stroke-miterlimit="4" stroke-dasharray="none" stroke-opacity="1"/><path id="path1091" d="M270.4 293.2c-39.359 10.88-45.119 23.36-43.839 40.32 9.28 29.12 26.24 40.96 46.4 48.639 16.96.32 33.28-.32 44.8-13.12 48 27.84 98.879 59.2 156.798 52.8-80.959-21.12-157.758-45.76-204.158-128.64z" fill="#9a8179" fill-opacity="1" fill-rule="nonzero" stroke="#9a8179" stroke-width="3.84" stroke-linecap="butt" stroke-linejoin="miter" stroke-miterlimit="4" stroke-dasharray="none" stroke-opacity="1"/><path id="path1093" d="M437.76 85.841c-6.72 7.36-8 11.84-8 15.68m-97.92-33.92c-7.68 8.32-10.56 19.2-11.52 31.36m-19.84 116.16c61.12-5.12 115.2-28.8 163.52-66.24M253.44 298.32c-28.48-120.64-11.52-205.119 78.4-230.719m-78.4 230.719c49.6-14.08 49.28-48.32 47.04-83.2m20.16-115.839c52.16-32.32 100.799-42.56 147.198-37.76m0 0c-10.88 4.8-20.8 12.8-30.08 24.32m0 0c48.32 3.2 74.24 26.24 100.16 48.64m0 0c-23.36-.64-47.68 1.92-73.92 14.4M262.721 295.76c-53.12 9.92-35.84 47.68-27.52 59.2m0 0c24.64 32.319 48 32.639 70.72 22.719m0 0c4.8-2.56 8.64-5.44 11.84-8.64m-27.52-36.48c-13.76-2.88-25.28-3.2-34.56.64 0 6.72 2.24 14.4 4.16 16.96 5.44 7.36 8.32 7.68 14.72 6.72 5.76-1.92 8.64-4.48 11.84-7.36m223.678-37.76c-43.52-16-68.8-59.519-28.48-108.159m27.2 107.52c71.68-8.32 76.8-42.24 72.64-70.4-8.64-34.24-27.2-59.84-99.84-37.12m42.56-8c55.68 5.12 62.72 85.76 16.32 106.56-56.96 5.12-80.32-83.2-16.32-106.56zm-42.24 7.68c-3.2-17.92-8.96-35.84-18.24-53.76m-65.92 84.8c69.12 4.48 79.36 95.68 19.2 122.88-68.159 7.04-95.679-94.08-19.2-122.88zm18.56 122.88c-46.079 7.68-73.919-8.64-84.479-48.32-1.28-39.68 13.76-71.36 65.92-74.56m49.92 153.599c12.48-7.36 22.72-16 28.16-27.84m-157.76 8.96c72 44.16 121.6 58.88 155.52 53.44m35.839-111.04c-6.72 37.12-18.56 72.96-34.88 110.4" fill="none" stroke="#000" stroke-width="3.84" stroke-linecap="round" stroke-linejoin="miter" stroke-miterlimit="4" stroke-dasharray="none" stroke-opacity="1"/><path id="path1095" d="M716.478 247.76c-10.56-8-17.6-15.36-21.12-22.4-4.8-9.28-7.36-20.16-7.36-33.28V79.761c0-11.84-3.2-21.44-10.24-29.12-6.72-7.68-15.36-12.16-25.6-12.8-6.72-.64-10.88-1.92-12.8-3.84-2.88-2.56-4.16-5.76-4.16-9.6s1.28-7.04 3.84-9.28c2.56-2.56 6.72-3.84 11.84-3.84 16.64 0 30.4 5.12 41.28 16 14.72 14.08 22.08 31.68 22.08 52.48v112.32c0 11.52 3.52 21.12 10.56 29.12 7.04 7.68 15.68 11.84 26.56 12.8 5.44.64 9.28 2.24 11.84 4.48 2.24 2.24 3.52 5.44 3.52 9.279 0 4.16-1.28 7.36-3.52 9.6-2.56 2.56-6.4 3.84-11.84 4.48-10.88.96-19.84 5.12-26.56 13.12-7.04 7.68-10.56 17.28-10.56 28.8v112.319c0 19.84-6.08 35.84-18.56 48.96-12.48 13.12-27.52 19.52-44.8 19.52-5.12 0-9.28-1.28-11.84-3.52-2.56-2.56-3.84-5.76-3.84-9.92 0-3.52 1.28-6.72 3.84-9.28 1.92-1.92 6.4-3.2 13.12-3.84 10.56-.96 18.88-5.44 25.6-13.44 7.04-7.68 10.24-17.28 10.24-28.8v-112c0-13.12 2.24-23.68 6.4-32 4.16-8 11.52-15.999 22.08-23.999z" fill="#00c1c1" fill-opacity="1" fill-rule="nonzero" stroke="#09616c" stroke-width="7.68" stroke-linecap="butt" stroke-linejoin="miter" stroke-miterlimit="4" stroke-dasharray="none" stroke-opacity="1"/><path id="path1097" d="M83.522 251.92c10.56-8 17.6-15.36 21.12-22.72 4.8-8.96 7.36-20.16 7.36-32.96V83.601c0-11.52 3.52-21.12 10.24-29.12 7.04-7.68 15.36-11.84 25.6-12.8 6.72-.64 10.88-1.6 12.8-3.52 2.88-2.88 4.16-6.08 4.16-9.92 0-3.52-1.28-6.72-3.84-9.28-2.56-2.56-6.72-3.84-11.84-3.84-16.64 0-30.4 5.44-41.28 16-14.72 14.4-22.08 31.68-22.08 52.48v112.64c0 11.52-3.52 21.12-10.24 29.12-7.04 7.68-16 11.84-26.56 12.8-5.76.64-9.6 1.92-11.84 4.16-2.56 2.56-3.84 5.439-3.84 9.599s1.28 7.36 3.84 9.6c2.24 2.24 6.08 3.84 11.84 4.48 10.56.64 19.52 5.12 26.56 13.12 6.72 7.68 10.24 17.28 10.24 28.48v112.639c0 19.52 6.08 35.84 18.56 48.64 12.8 13.12 27.52 19.84 44.8 19.84 5.12 0 9.28-1.28 11.84-3.84 2.56-2.56 3.84-5.76 3.84-9.6s-1.28-7.04-3.84-9.28c-1.92-1.92-6.4-3.2-13.12-3.84-10.24-.96-18.88-5.44-25.6-13.44-6.72-7.68-10.24-17.28-10.24-28.8v-112.32c0-13.12-2.24-23.68-6.4-31.68-4.16-8.32-11.52-16.32-22.08-23.999z" fill="#00c1c1" fill-opacity="1" fill-rule="nonzero" stroke="#09616c" stroke-width="7.68" stroke-linecap="butt" stroke-linejoin="miter" stroke-miterlimit="4" stroke-dasharray="none" stroke-opacity="1"/></svg>