<?xml version="1.0" encoding="UTF-8" standalone="no"?>
<!-- Generator: Adobe Illustrator 19.2.1, SVG Export Plug-In . SVG Version: 6.00 Build 0)  -->

<svg
   xmlns:dc="http://purl.org/dc/elements/1.1/"
   xmlns:cc="http://creativecommons.org/ns#"
   xmlns:rdf="http://www.w3.org/1999/02/22-rdf-syntax-ns#"
   xmlns:svg="http://www.w3.org/2000/svg"
   xmlns="http://www.w3.org/2000/svg"
   xmlns:sodipodi="http://sodipodi.sourceforge.net/DTD/sodipodi-0.dtd"
   xmlns:inkscape="http://www.inkscape.org/namespaces/inkscape"
   version="1.1"
   id="Layer_1"
   x="0px"
   y="0px"
   viewBox="0 0 800 500"
   xml:space="preserve"
   sodipodi:docname="logo_3.svg"
   width="800"
   height="500"
   inkscape:version="0.92.2 (5c3e80d, 2017-08-06)"><metadata
     id="metadata251"><rdf:RDF><cc:Work
         rdf:about=""><dc:format>image/svg+xml</dc:format><dc:type
           rdf:resource="http://purl.org/dc/dcmitype/StillImage" /><dc:title></dc:title></cc:Work></rdf:RDF></metadata><defs
     id="defs249"><pattern
       y="0"
       x="0"
       height="6"
       width="6"
       patternUnits="userSpaceOnUse"
       id="EMFhbasepattern" /></defs><sodipodi:namedview
     pagecolor="#ffffff"
     bordercolor="#666666"
     borderopacity="1"
     objecttolerance="10"
     gridtolerance="10"
     guidetolerance="10"
     inkscape:pageopacity="0"
     inkscape:pageshadow="2"
     inkscape:window-width="1600"
     inkscape:window-height="838"
     id="namedview247"
     showgrid="false"
     units="px"
     inkscape:zoom="0.3034188"
     inkscape:cx="468"
     inkscape:cy="258"
     inkscape:window-x="-8"
     inkscape:window-y="-8"
     inkscape:window-maximized="1"
     inkscape:current-layer="Layer_1" /><style
     type="text/css"
     id="style2">
	.st0{fill:#533657;stroke:#2E1633;stroke-width:8;stroke-linecap:round;stroke-linejoin:round;stroke-miterlimit:10;}
	.st1{opacity:0.8;}
	.st2{fill:none;stroke:#FFFFFF;stroke-width:0.7567;stroke-miterlimit:10;}
	.st3{fill:#FFFFFF;}
	.st4{opacity:0.2;fill:#533657;}
	.st5{fill:#2E1633;}
	.st6{fill:#533657;}
	.st7{fill:none;stroke:#CC6699;stroke-width:3;stroke-miterlimit:10;}
	.st8{fill:none;stroke:#B8A7D6;stroke-width:3;stroke-miterlimit:10;}
	.st9{fill:none;stroke:#FFFDAB;stroke-width:3;stroke-miterlimit:10;}
	.st10{fill:none;stroke:#14D7F3;stroke-width:3;stroke-miterlimit:10;}
	.st11{fill:none;stroke:#2E1633;stroke-width:8;stroke-linecap:round;stroke-linejoin:round;stroke-miterlimit:10;}
	.st12{opacity:0.28;}
	.st13{fill:none;stroke:#2E1633;stroke-width:8;stroke-linejoin:round;stroke-miterlimit:10;}
	.st14{fill:none;stroke:#2E1633;stroke-width:3;stroke-miterlimit:10;}
	.st15{fill:#FFFAB6;}
	.st16{opacity:0.23;fill:#2E1633;}
	.st17{fill:none;stroke:#BBE2DC;stroke-width:3;stroke-miterlimit:10;}
	.st18{fill:#B3ABD3;}
	.st19{fill:none;stroke:#2E1633;stroke-width:7;stroke-linecap:round;stroke-linejoin:round;stroke-miterlimit:10;}
	.st20{opacity:0.28;fill:#533657;}
	.st21{fill:#CC6699;}
	.st22{fill:none;stroke:#2E1633;stroke-width:3;stroke-linecap:round;stroke-linejoin:round;stroke-miterlimit:10;}
	.st23{fill:none;stroke:#2E1633;stroke-width:2.1774;stroke-miterlimit:10;}
</style><path
     id="path1061"
     d="m 253.12102,297.35962 c -2.56,0.32 0,1.28 -4.47996,-22.3998 -11.83992,-62.39952 -10.23992,-112.31916 7.03992,-147.51888 12.15992,-24.95984 30.0798,-46.39968 56.95959,-52.15964 l 16.31988,-6.39996 -4.47995,9.91996 c -4.16,9.27992 -6.07996,19.199839 -3.84,20.159839 0.96,0.64 1.92,-1.28 7.67996,-4.79996 17.59988,-10.239919 32.31976,-17.279879 53.4396,-24.319839 25.91979,-7.99992 37.11971,-12.47988 60.79952,-9.59992 l 21.11988,2.24 -9.27997,7.67992 c -9.27991,7.35996 -17.27983,12.79992 -16.63987,15.03988 0.31999,0.32 3.52,0 9.91995,0.96 21.43984,3.2 42.55977,12.159919 59.51976,23.99984 9.9196,6.71996 34.5596,26.5598 28.7996,23.9998 6.08,2.56 -10.24,0.32 -15.35999,0.64 -16.6396,0.96 -20.4796,1.92 -39.99961,5.75996 l -17.59988,8.95996 -11.83991,8.31992 c -26.8798,18.55988 -49.91965,31.35976 -80.6394,41.91968 -22.71984,7.99996 -36.79972,11.19992 -59.83956,14.39992 -12.79988,1.59996 -10.23992,-1.28 -9.27992,2.23996 0.32,0.64 -0.64,7.35996 -0.64,13.43992 0.64,29.11976 -8.95992,48.63964 -26.2398,59.51954 -5.75997,3.84 -17.59988,7.9999 -21.11985,8.6399 z"
     style="fill:#312929;fill-opacity:1;fill-rule:nonzero;stroke:none;stroke-width:4"
     inkscape:connector-curvature="0" /><path
     id="path1063"
     d="m 459.51945,422.15872 c -30.71975,-0.32 -72.31944,-14.7199 -119.35907,-41.5997 -10.23992,-5.7599 -20.79984,-10.5599 -22.07985,-11.1999 -1.92,-0.96 -0.64,-0.96 -5.75996,3.2 -8.95992,6.7199 -25.5998,11.1999 -36.15972,9.5999 -28.4798,-4.16 -56.9596,-42.5597 -47.67968,-63.9995 3.52,-8.3199 10.23996,-13.4399 28.1598,-20.1599 13.75992,-5.1199 17.91988,-7.3599 23.35984,-11.5199 14.07988,-11.1999 20.47984,-24.31978 21.43984,-47.35962 0.32,-6.39996 -0.64,-9.91992 -0.32,-12.79992 0.32,-2.55996 0,-4.47996 0.32,-6.39992 0,-3.52 2.24,-4.48 11.19992,-5.75996 15.67988,-1.92 42.87968,-8.31996 57.59956,-12.79992 26.5598,-8.63992 58.55956,-26.5598 81.5994,-43.51968 4.47996,-3.19996 11.19992,-6.39996 11.19992,-6.39996 1.59996,0.96 12.47989,27.1998 15.35988,38.39972 2.56,10.87992 3.2,14.39988 0,17.91988 -7.35996,8.63992 -15.67987,24.6398 -17.27988,36.47972 -1.6,11.51992 -2.87996,11.83992 2.24,26.23976 4.79996,14.3999 7.99992,14.7199 15.99988,22.7199 4.48,4.7999 11.84,9.9199 17.6,13.1199 l 11.5196,5.7599 -2.2396,9.92 c -7.04,35.1997 -26.56,97.5993 -32.32,99.5192 -1.6,0.32 -10.23988,0.64 -14.39988,0.64 z m -1.27996,-39.9997 c 11.19992,-8.6399 18.23984,-17.9198 16.95984,-21.4398 -0.96,-3.52 0.96,-1.92 -2.24,3.52 -4.15992,7.3599 -7.35992,10.2399 -17.91984,17.9198 -8.31992,5.76 -9.27992,4.8 -6.71996,6.08 2.24,0.96 2.88001,-0.64 9.91996,-6.08 z m -24.63984,-34.5597 c 11.83992,-9.5999 20.47984,-25.5998 22.39984,-40.6397 1.92,-13.1199 0.96,-22.0799 -4.15996,-35.1998 -4.15996,-10.87988 -6.07996,-12.79988 -13.43992,-20.1598 -13.75988,-13.75992 -31.35976,-20.47988 -49.5996,-17.59988 -14.71988,2.23996 -31.35976,9.59992 -39.35972,16.95988 -12.15992,11.51992 -18.23988,29.1198 -18.55983,49.5996 0,8 0.63996,10.56 4.79996,21.1199 6.71992,16.3199 12.47988,23.0398 26.2398,30.3997 12.79988,7.04 24.6398,8.64 42.23968,7.04 14.07988,-0.96 19.19984,-3.2 29.43975,-11.5199 z m -148.47888,4.4799 c 1.92,-1.6 1.92,-1.6 1.6,-2.24 -1.28,-1.5999 -2.24,0.32 -9.59996,4.48 -3.83996,2.56 -7.03992,2.88 -10.87992,0.96 -3.83996,-1.92 -5.75992,-4.48 -7.99992,-10.5599 -1.28,-4.16 -1.28,-10.2399 -0.64,-10.5599 1.6,-1.92 14.07988,-3.52 24.31984,-2.24 5.43996,0.96 7.35992,2.24 7.67992,1.6 1.28,-2.88 -1.28,-2.56 -11.19992,-3.84 -11.19992,-0.96 -22.39984,0.96 -23.3598,4.48 -0.32,0.96 0,3.84 1.27996,8.3199 1.28,6.4 2.88,8.3199 6.71996,11.8399 2.56,2.56 5.43996,3.2 6.71996,3.2 3.51996,0 10.55992,-1.92 14.39988,-5.12 z"
     style="fill:#efcebd;fill-opacity:1;fill-rule:nonzero;stroke:none;stroke-width:4"
     inkscape:connector-curvature="0" /><path
     id="path1065"
     d="m 528.95893,306.95962 c -3.52,0.96 -17.92,2.88 -19.2,2.88 -1.92,-0.32 -11.5196,-4.16 -16.95959,-7.68 -10.56,-6.7199 -18.88001,-14.3999 -23.99992,-23.6798 -3.20001,-6.08 -6.39996,-16.63988 -6.71996,-23.03984 -0.64,-15.35988 1.28,-34.55976 15.99988,-46.07968 l 5.12,-4.15996 6.4,-2.87996 c 6.4,-2.88 23.9996,-5.43996 26.5596,-5.75996 0.96,0 -2.88,2.87996 -5.44,4.79996 -21.1196,13.75988 -30.7196,38.71972 -23.3596,63.67952 2.24,7.35992 4.48,11.83992 8.32,17.59992 8.64,12.1599 24.3196,17.9198 38.3996,19.8398 3.84,0.64 -0.32,3.52 -5.12001,4.48 z"
     style="fill:#00adef;fill-opacity:1;fill-rule:nonzero;stroke:none;stroke-width:4"
     inkscape:connector-curvature="0" /><path
     id="path1067"
     d="m 379.2001,357.83922 c -20.15988,-4.48 -35.83977,-17.5999 -43.83969,-38.0797 -3.83999,-10.2399 -3.52,-11.1999 -3.2,-19.5199 1.28,-31.3598 12.15992,-52.7996 32.95976,-58.23956 l 17.27988,-4.47996 6.71996,-1.59996 c -7.67996,1.59996 -30.3998,28.79976 -34.23976,40.95968 -5.11996,15.9999 -5.11996,27.1998 1.28,43.5197 6.07996,15.3599 15.99988,23.6798 28.4798,30.7197 3.51997,1.92 13.43988,5.76 10.23992,6.72 -3.84,0.96 -12.15992,0.64 -15.67987,0 z"
     style="fill:#00adef;fill-opacity:1;fill-rule:nonzero;stroke:none;stroke-width:4"
     inkscape:connector-curvature="0" /><path
     id="path1069"
     d="m 557.43893,289.67972 c 4.79961,-5.1199 11.51961,-19.1999 12.7996,-26.87978 3.2,-21.11988 -5.12,-44.15968 -18.2396,-57.2796 -16.64,-6.39996 -14.4,-9.27992 -1.6,-7.03996 16.9596,8.95996 36.4796,32.95976 32.6396,57.2796 -1.92,11.83994 -12.8,33.27974 -21.7596,38.39974 l -11.52,4.7999 z"
     style="fill:#4c7287;fill-opacity:1;fill-rule:nonzero;stroke:none;stroke-width:4"
     inkscape:connector-curvature="0" /><path
     id="path1071"
     d="m 404.1599,356.87922 c -38.39972,-3.84 -63.99952,-49.2796 -47.35964,-86.0794 4.79996,-10.55988 13.11988,-20.4798 23.3598,-27.19976 11.83992,-7.99992 20.47988,-9.27992 31.3598,-6.39996 11.51988,2.88 21.1198,8.95996 29.75976,17.91988 5.11996,5.43996 6.71992,8.31992 10.55991,19.51984 5.11996,15.0399 5.75997,25.5998 1.91996,40.6397 -3.19996,12.4799 -11.83988,26.2398 -22.3998,33.5998 -9.91992,7.3599 -17.27988,9.2799 -27.19979,7.9999 z"
     style="fill:#8ccef7;fill-opacity:1;fill-rule:nonzero;stroke:none;stroke-width:4"
     inkscape:connector-curvature="0" /><path
     id="path1073"
     d="m 528.95893,301.51962 c -9.28,-0.96 -21.44,-8.6399 -28.47959,-15.6799 -4.16001,-4.4799 -7.36,-7.9999 -11.2,-19.1998 -4.16001,-12.15994 -3.52,-15.3599 -2.24,-24.95986 2.24,-17.91984 15.03999,-35.19972 30.71959,-42.55968 7.04,-2.87996 9.92,-2.87996 16.64001,-0.64 17.59999,5.75996 30.0796,17.59988 34.8796,35.83976 6.72,24.6398 -4.16,54.71958 -23.6796,65.59948 -3.2,1.92 -11.2,2.24 -16.64001,1.6 z"
     style="fill:#8ccef7;fill-opacity:1;fill-rule:nonzero;stroke:none;stroke-width:4"
     inkscape:connector-curvature="0" /><path
     id="path1075"
     d="m 318.72054,100.88114 v 11.51988 l 4.47995,4.8 c 15.03988,-20.479881 34.23976,-30.0798 54.7196,-44.47968 l -25.5998,9.27992 z"
     style="fill:#181818;fill-opacity:1;fill-rule:nonzero;stroke:#181818;stroke-width:4.15996933px;stroke-linecap:butt;stroke-linejoin:round;stroke-miterlimit:4;stroke-dasharray:none;stroke-opacity:1"
     inkscape:connector-curvature="0" /><path
     id="path1077"
     d="m 407.03986,273.03982 c -1.59996,2.24 -1.91996,4.48 -0.63996,6.4 1.59996,2.88 3.19996,3.84 5.11996,4.8 1.91996,0.6399 3.83996,0.9599 5.75996,-0.32 1.91996,-1.6 3.51996,-3.2 3.19996,-6.4 -0.96,-2.88 -2.88001,-4.48 -5.11996,-5.76 -2.56,-1.28 -5.43996,-0.96 -8.31996,1.28 z"
     style="fill:#ffffff;fill-opacity:1;fill-rule:nonzero;stroke:#ffffff;stroke-width:0.31999764px;stroke-linecap:butt;stroke-linejoin:miter;stroke-miterlimit:4;stroke-dasharray:none;stroke-opacity:1"
     inkscape:connector-curvature="0" /><path
     id="path1079"
     d="m 385.60002,257.67998 c -2.55996,3.51996 -3.51997,6.71992 -1.59996,9.91994 1.91996,3.8399 4.15996,4.7999 6.71992,6.0799 2.88,0.96 5.75996,0.96 8.95995,-1.28 3.19996,-2.24 5.43996,-5.1199 5.43996,-9.59988 -0.96,-4.16 -3.52,-6.71996 -7.03996,-7.99996 -3.83996,-1.92 -7.99992,-0.96 -12.47991,2.88 z"
     style="fill:#ffffff;fill-opacity:1;fill-rule:nonzero;stroke:#ffffff;stroke-width:0.31999764px;stroke-linecap:butt;stroke-linejoin:miter;stroke-miterlimit:4;stroke-dasharray:none;stroke-opacity:1"
     inkscape:connector-curvature="0" /><path
     id="path1081"
     d="m 536.31894,225.68018 c -3.2,1.6 -5.12,3.2 -6.08,5.75996 -0.64,2.24 -0.32,4.48 0.32,6.71996 1.6,1.92 3.84,2.56 5.76,3.2 2.56,-0.32 4.16,-1.28 6.08,-2.56 1.59999,-2.56 2.24,-3.51996 1.92,-6.39996 -0.64001,-2.23996 -1.92,-4.15996 -4.48,-5.75996 -0.64001,-0.96 -1.92,-1.28 -3.52,-0.96 z"
     style="fill:#ffffff;fill-opacity:1;fill-rule:nonzero;stroke:#ffffff;stroke-width:0.63999528px;stroke-linecap:butt;stroke-linejoin:round;stroke-miterlimit:4;stroke-dasharray:none;stroke-opacity:1"
     inkscape:connector-curvature="0" /><path
     id="path1083"
     d="m 512.63894,210.9603 c -2.24,1.28 -4.48,2.88 -6.0796,6.07996 -1.6,4.79996 -0.64001,6.71996 0,8.95992 1.2796,3.52 3.5196,5.43996 6.71959,7.03996 2.24,0.96 5.44,0.96 8.64001,-0.32 3.2,-1.6 5.75999,-3.83996 7.03999,-6.71996 0.96001,-3.51996 0.64001,-6.71992 -0.64,-8.95992 -0.96,-3.83996 -3.52,-5.43996 -6.08,-6.71996 -3.52,-0.64 -6.72,-0.64 -9.59999,0.64 z"
     style="fill:#ffffff;fill-opacity:1;fill-rule:nonzero;stroke:#ffffff;stroke-width:0.63999528px;stroke-linecap:butt;stroke-linejoin:round;stroke-miterlimit:4;stroke-dasharray:none;stroke-opacity:1"
     inkscape:connector-curvature="0" /><path
     id="path1085"
     d="m 429.7597,103.1211 c 44.15964,-5.439961 72.95964,19.19988 106.87924,32.31976 -18.56,-18.87984 -52.79961,-50.5596 -100.15929,-47.99964 -4.79996,4.47996 -6.39996,9.919919 -6.71995,15.67988 z"
     style="fill:#181818;fill-opacity:1;fill-rule:nonzero;stroke:#181818;stroke-width:3.83997154px;stroke-linecap:butt;stroke-linejoin:miter;stroke-miterlimit:4;stroke-dasharray:none;stroke-opacity:1"
     inkscape:connector-curvature="0" /><path
     id="path1087"
     d="m 270.7209,289.67972 c -14.71992,-57.59958 -31.0398,-113.59914 -3.84,-179.51866 -19.19984,39.03972 -41.27969,72.95944 -15.03988,187.19856 7.03996,-1.6 14.39987,-2.5599 18.87988,-7.6799 z"
     style="fill:#171717;fill-opacity:1;fill-rule:nonzero;stroke:#181818;stroke-width:3.83997154px;stroke-linecap:butt;stroke-linejoin:miter;stroke-miterlimit:4;stroke-dasharray:none;stroke-opacity:1"
     inkscape:connector-curvature="0" /><path
     id="path1089"
     d="m 300.48065,215.12026 c 53.75961,1.92 109.11921,-8.95992 168.63876,-52.7996 l -5.43995,-12.79988 c -44.79969,40.63968 -103.03925,61.11952 -163.19881,65.59948 z"
     style="fill:#9a8179;fill-opacity:1;fill-rule:nonzero;stroke:#9a8179;stroke-width:3.83997154px;stroke-linecap:butt;stroke-linejoin:miter;stroke-miterlimit:4;stroke-dasharray:none;stroke-opacity:1"
     inkscape:connector-curvature="0" /><path
     id="path1091"
     d="m 270.4009,293.19972 c -39.35972,10.8799 -45.11968,23.3598 -43.83968,40.3197 9.27991,29.1198 26.2398,40.9597 46.39964,48.6396 16.95988,0.32 33.27976,-0.32 44.79968,-13.1199 47.99964,27.8398 98.87928,59.1996 156.7988,52.7996 -80.95936,-21.1198 -157.7588,-45.7596 -204.15844,-128.639 z"
     style="fill:#9a8179;fill-opacity:1;fill-rule:nonzero;stroke:#9a8179;stroke-width:3.83997154px;stroke-linecap:butt;stroke-linejoin:miter;stroke-miterlimit:4;stroke-dasharray:none;stroke-opacity:1"
     inkscape:connector-curvature="0" /><path
     id="path1093"
     d="m 437.75962,85.84122 c -6.71992,7.359959 -7.99992,11.839919 -7.99992,15.67988 M 331.84041,67.60138 C 324.16049,75.9213 321.2805,86.80122 320.3205,98.961139 M 300.48065,215.12026 c 61.11957,-5.11996 115.19916,-28.79976 163.5188,-66.23948 M 253.44101,298.31962 C 224.96121,177.68054 241.9211,93.201179 331.84041,67.60138 m -78.3994,230.71824 c 49.59964,-14.0798 49.27964,-48.3196 47.03964,-83.19936 M 320.64049,99.281139 C 372.80014,66.96138 421.43977,56.72146 467.83942,61.52142 m 0,0 c -10.87993,4.79996 -20.79984,12.79988 -30.0798,24.3198 m 0,0 c 48.31971,3.2 74.23931,26.2398 100.15932,48.63964 m 0,0 c -23.36,-0.64 -47.6796,1.92 -73.91949,14.39992 M 262.72093,295.75962 c -53.1196,9.92 -35.83972,47.6797 -27.5198,59.1996 m 0,0 c 24.63984,32.3198 47.99964,32.6398 70.71948,22.7198 m 0,0 c 4.79996,-2.5599 8.63996,-5.4399 11.83992,-8.6399 m -27.5198,-36.4797 c -13.75988,-2.88 -25.2798,-3.2 -34.55976,0.64 0,6.7199 2.24,14.3999 4.16,16.9598 5.43996,7.36 8.31992,7.68 14.71988,6.72 5.75996,-1.92 8.63992,-4.48 11.83992,-7.3599 m 223.67816,-37.7598 c -43.51952,-15.9999 -68.79932,-59.5195 -28.4796,-108.15914 m 27.1996,107.51924 c 71.6796,-8.32 76.7996,-42.2398 72.6396,-70.39952 -8.64,-34.23976 -27.1996,-59.83956 -99.8392,-37.11972 m 42.5596,-7.99996 c 55.6796,5.11996 62.7196,85.7594 16.32,106.5592 -56.9596,5.12 -80.31948,-83.19936 -16.32,-106.5592 z m -42.2396,7.67996 c -3.2,-17.91988 -8.96,-35.83976 -18.23988,-53.7596 m -65.91952,84.79936 c 69.11948,4.47996 79.3594,95.67928 19.19988,122.87908 -68.15952,7.04 -95.67932,-94.07928 -19.19988,-122.87908 z m 18.55988,122.87908 c -46.07968,7.68 -73.91948,-8.6399 -84.4794,-48.3196 -1.27996,-39.6798 13.75992,-71.35952 65.91952,-74.55948 m 49.91964,153.59888 c 12.47988,-7.36 22.7198,-15.9999 28.15976,-27.8398 m -157.7588,8.9599 c 71.99948,44.1597 121.59908,58.8796 155.5188,53.4396 m 35.8396,-111.0391 c -6.7196,37.1197 -18.5596,72.9594 -34.8796,110.3991"
     style="fill:none;stroke:#000000;stroke-width:3.83997154px;stroke-linecap:round;stroke-linejoin:miter;stroke-miterlimit:4;stroke-dasharray:none;stroke-opacity:1"
     inkscape:connector-curvature="0" /><path
     id="path1095"
     d="m 716.47773,247.76002 c -10.56,-7.99992 -17.6,-15.35988 -21.12,-22.39984 -4.8,-9.27992 -7.36,-20.15984 -7.36,-33.27972 V 79.76126 c 0,-11.83988 -3.2,-21.43984 -10.24,-29.11976 -6.71999,-7.67996 -15.35959,-12.15992 -25.5996,-12.79992 -6.71999,-0.64 -10.88,-1.91996 -12.8,-3.83996 -2.88,-2.56 -4.16,-5.75996 -4.16,-9.59992 0,-3.84 1.28001,-7.03996 3.84001,-9.27996 2.56,-2.55996 6.71999,-3.83996 11.84,-3.83996 16.64,0 30.3996,5.11996 41.2796,15.99988 14.71999,14.07992 22.08,31.67976 22.08,52.4796 v 112.3192 c 0,11.51992 3.51999,21.11984 10.5596,29.11976 7.04,7.67996 15.67999,11.83992 26.56,12.79992 5.44,0.64 9.28,2.23996 11.84,4.47996 2.23999,2.24 3.52,5.43996 3.52,9.27992 0,4.16 -1.28001,7.35996 -3.52,9.59996 -2.56,2.55996 -6.4,3.83996 -11.84,4.47996 -10.88001,0.96 -19.84001,5.11998 -26.56,13.11988 -7.03961,7.68 -10.5596,17.2799 -10.5596,28.7998 v 112.3192 c 0,19.8398 -6.08,35.8397 -18.56,48.9596 -12.48,13.1199 -27.51961,19.5199 -44.7996,19.5199 -5.12,0 -9.28,-1.28 -11.84,-3.52 -2.56,-2.56 -3.84001,-5.76 -3.84001,-9.92 0,-3.5199 1.28001,-6.7199 3.84001,-9.2799 1.92,-1.92 6.4,-3.2 13.11999,-3.8399 10.56,-0.96 18.87961,-5.44 25.5996,-13.44 7.04,-7.6799 10.24,-17.2798 10.24,-28.7997 v -111.9992 c 0,-13.1199 2.24,-23.6798 6.4,-31.9998 4.16,-7.99992 11.52,-15.99984 22.08,-23.9998 z"
     style="fill:#00c1c1;fill-opacity:1;fill-rule:nonzero;stroke:#09616c;stroke-width:7.67994308px;stroke-linecap:butt;stroke-linejoin:miter;stroke-miterlimit:4;stroke-dasharray:none;stroke-opacity:1"
     inkscape:connector-curvature="0" /><path
     id="path1097"
     d="m 83.52225,251.92002 c 10.55992,-7.99996 17.59988,-15.35992 21.11985,-22.71984 4.79999,-8.95996 7.35996,-20.15984 7.35996,-32.95976 V 83.60126 c 0,-11.51992 3.51996,-21.11984 10.23991,-29.1198 7.03997,-7.67992 15.35988,-11.83992 25.5998,-12.79988 6.71996,-0.64 10.87993,-1.6 12.79992,-3.52 2.88,-2.87996 4.15996,-6.07996 4.15996,-9.91992 0,-3.51996 -1.27996,-6.71996 -3.83996,-9.27992 -2.56,-2.56 -6.71996,-3.84 -11.83992,-3.84 -16.63988,0 -30.39976,5.43996 -41.27968,15.99992 -14.71988,14.39988 -22.07984,31.67976 -22.07984,52.4796 v 112.63916 c 0,11.51992 -3.51996,21.11984 -10.23992,29.11976 -7.03996,7.67996 -15.99988,11.83992 -26.55979,12.79992 -5.75996,0.64 -9.59992,1.92 -11.83992,4.15996 -2.56,2.56 -3.83996,5.43996 -3.83996,9.59996 0,4.15996 1.27996,7.35992 3.83996,9.59992 2.24,2.23996 6.07996,3.83996 11.83992,4.47996 10.55991,0.64002 19.51983,5.11992 26.55979,13.11992 6.71996,7.6799 10.23992,17.2798 10.23992,28.4798 v 112.6392 c 0,19.5198 6.07996,35.8397 18.55984,48.6396 12.79992,13.1199 27.5198,19.8398 44.79968,19.8398 5.11996,0 9.27992,-1.28 11.83992,-3.8399 2.56,-2.56 3.83996,-5.76 3.83996,-9.6 0,-3.84 -1.27996,-7.0399 -3.83996,-9.2799 -1.92,-1.92 -6.39996,-3.2 -13.11992,-3.84 -10.23992,-0.96 -18.87984,-5.4399 -25.5998,-13.4399 -6.71996,-7.6799 -10.23992,-17.2799 -10.23992,-28.7997 v -112.3192 c 0,-13.1199 -2.24,-23.6798 -6.39996,-31.6798 -4.15996,-8.3199 -11.51992,-16.31988 -22.07984,-23.9998 z"
     style="fill:#00c1c1;fill-opacity:1;fill-rule:nonzero;stroke:#09616c;stroke-width:7.67994308px;stroke-linecap:butt;stroke-linejoin:miter;stroke-miterlimit:4;stroke-dasharray:none;stroke-opacity:1"
     inkscape:connector-curvature="0" /></svg>